<?xml version="1.0" standalone="no"?>
<!DOCTYPE svg PUBLIC "-//W3C//DTD SVG 20010904//EN"
 "http://www.w3.org/TR/2001/REC-SVG-20010904/DTD/svg10.dtd">
<svg version="1.0" xmlns="http://www.w3.org/2000/svg"
 width="1024.000000pt" height="512.000000pt" viewBox="0 0 1024.000000 512.000000"
 preserveAspectRatio="xMidYMid meet">

<g transform="translate(0.000000,512.000000) scale(0.100000,-0.100000)"
fill="#000000" stroke="none">
<path d="M3696 4180 c-107 -42 -186 -158 -186 -275 0 -253 301 -388 488 -220
66 59 95 127 96 220 1 209 -204 351 -398 275z"/>
<path d="M7046 3382 c5 -5 36 -16 69 -26 78 -24 165 -68 241 -121 87 -62 222
-211 183 -203 -7 2 -18 -7 -24 -19 -12 -22 -12 -22 -46 13 -53 55 -167 139
-238 174 -75 39 -219 80 -171 50 12 -7 11 -10 -5 -16 -11 -3 -44 -17 -74 -31
-29 -13 -76 -28 -102 -33 -27 -5 -73 -20 -102 -34 -28 -13 -68 -27 -87 -31
-19 -4 -54 -15 -78 -26 -43 -20 -206 -49 -271 -49 -45 0 -100 -58 -165 -174
-45 -80 -50 -85 -75 -79 -14 3 -28 7 -30 9 -8 7 22 90 60 168 22 43 38 81 35
83 -13 14 -69 -34 -101 -86 -97 -160 -131 -294 -122 -476 13 -239 103 -442
271 -611 287 -287 710 -359 1072 -184 226 109 392 295 471 525 52 152 64 304
38 456 -35 199 -97 324 -228 457 -160 163 -300 239 -491 266 -22 3 -35 2 -30
-2z m-105 -299 c46 -27 51 -62 47 -328 -3 -209 -5 -243 -21 -266 -47 -70 -158
-60 -187 17 -5 12 -10 139 -11 280 l-1 258 31 28 c37 33 96 38 142 11z m-344
-223 c56 -34 56 -88 2 -156 -129 -160 -110 -388 44 -519 123 -106 334 -106
463 0 89 73 141 198 131 314 -7 80 -27 130 -78 197 -62 81 -62 136 1 169 83
43 173 -19 236 -161 99 -223 57 -451 -116 -625 -182 -184 -431 -228 -658 -117
-81 40 -189 139 -236 217 -100 164 -110 371 -26 536 30 59 92 133 127 154 28
16 75 13 110 -9z"/>
<path d="M3752 3233 c-17 -174 -35 -265 -117 -608 -134 -561 -153 -706 -108
-807 35 -78 71 -116 139 -149 55 -27 74 -31 143 -31 92 0 147 20 209 76 65 59
87 121 86 246 -1 128 -23 251 -114 635 -38 160 -76 321 -85 360 -24 103 -55
304 -55 353 l0 42 -43 0 -43 0 -12 -117z"/>
</g>
</svg>
